# xmcd
#
# Track frame offsets:
#   150
#   18638
#   35124
#   51621
#   66414
#   79221
#   92619
#   112982
#   131549
#   146313
#   165580
#   179074
#   198891
#   213018
#
# Disc length: 3021 seconds
#
# Revision: 0
# Processed by: cddbd v1.5.2PL0 Copyright (c) Steve Scherf et al.
# Submitted via: GXTranscoder 2.0.1939
#
DISCID=c90bcb0e
DTITLE=Ronan Hardiman - Blackfield Dancer
DYEAR=1900
DGENRE=Country
TTITLE0=Wave OnWave
TTITLE1=Lightning Polka
TTITLE2=Whenever I Run
TTITLE3=Jolene
TTITLE4=All Week Long
TTITLE5=Pot Of Gold
TTITLE6=Getcha Good
TTITLE7=M Cross River
TTITLE8=Almost sure
TTITLE9=Wanna Be Me
TTITLE10=We Aint Wrong
TTITLE11=Rodeo Or Mexicko
TTITLE12=Sundown Waltz
TTITLE13=Sweet Little Dangerous
EXTD=
EXTT0=
EXTT1=
EXTT2=
EXTT3=
EXTT4=
EXTT5=
EXTT6=
EXTT7=
EXTT8=
EXTT9=
EXTT10=
EXTT11=
EXTT12=
EXTT13=
PLAYORDER=
